<svg height="512pt" viewBox="0 0 512 512" width="512pt" xmlns="http://www.w3.org/2000/svg"><path fill="white" d="m256 118c-76.09375 0-138 61.90625-138 138s61.90625 138 138 138 138-61.90625 138-138-61.90625-138-138-138zm0 236c-54.035156 0-98-43.964844-98-98s43.964844-98 98-98 98 43.964844 98 98-43.964844 98-98 98zm-20-294.667969v-39.332031c0-11.046875 8.953125-20 20-20s20 8.953125 20 20v39.332031c0 11.046875-8.953125 20-20 20s-20-8.953125-20-20zm40 393.335938v39.332031c0 11.046875-8.953125 20-20 20s-20-8.953125-20-20v-39.332031c0-11.046875 8.953125-20 20-20s20 8.953125 20 20zm236-196.667969c0 11.046875-8.953125 20-20 20h-39.332031c-11.046875 0-20-8.953125-20-20s8.953125-20 20-20h39.332031c11.046875 0 20 8.953125 20 20zm-452.667969 20h-39.332031c-11.046875 0-20-8.953125-20-20s8.953125-20 20-20h39.332031c11.046875 0 20 8.953125 20 20s-8.953125 20-20 20zm321.589844-144.921875c-7.8125-7.8125-7.8125-20.476563 0-28.285156l27.8125-27.8125c7.8125-7.8125 20.476563-7.8125 28.285156 0 7.808594 7.808593 7.8125 20.472656 0 28.285156l-27.8125 27.8125c-7.8125 7.8125-20.476562 7.808594-28.285156 0zm-249.84375 249.84375c7.8125 7.8125 7.8125 20.476563 0 28.285156l-27.8125 27.8125c-7.8125 7.8125-20.476563 7.808594-28.285156 0-7.8125-7.808593-7.8125-20.472656 0-28.285156l27.8125-27.8125c7.8125-7.8125 20.476562-7.8125 28.285156 0zm305.941406 27.8125c7.8125 7.8125 7.8125 20.476563 0 28.285156-7.808593 7.808594-20.476562 7.808594-28.285156 0l-27.8125-27.8125c-7.8125-7.8125-7.8125-20.476562 0-28.285156 7.8125-7.8125 20.476563-7.8125 28.285156 0zm-362.039062-305.46875c-7.8125-7.8125-7.8125-20.476563 0-28.285156 7.808593-7.808594 20.472656-7.808594 28.285156 0l27.8125 27.8125c7.8125 7.8125 7.8125 20.476562 0 28.285156-7.8125 7.8125-20.476563 7.808594-28.285156 0zm0 0"/></svg>
